# xmcd CD database file
#
# Track frame offsets:
#	150
#	18134
#	36799
#	50085
#	69314
#	77569
#	99332
#	114560
#	129914
#	148256
#	160215
#	174167
#	190757
#	199000
#
# Disc length: 2864 seconds
#
# Revision: 0
# Processed by: cddbd v1.5.2PL0 Copyright (c) Steve Scherf et al.
# Submitted via: CDex 1.51
#
DISCID=b00b2e0e
DTITLE=David Plate - Transparency
DYEAR=2008
DGENRE=Jazz
TTITLE0=Corners Of My Mouth
TTITLE1=Café Con Piernas
TTITLE2=B-Minor Waltz
TTITLE3=Betwixt And Between
TTITLE4=Early Night
TTITLE5=Samira
TTITLE6=All The Things You Are
TTITLE7=Uninvisible
TTITLE8=More Than Alive
TTITLE9=Blue Bop
TTITLE10=Your Smile
TTITLE11=I've Grown Accustomed To Her Face
TTITLE12=Caught A Cold
TTITLE13=Ballad From ´97
EXTD=YEAR: 2008
EXTT0=
EXTT1=
EXTT2=
EXTT3=
EXTT4=
EXTT5=
EXTT6=
EXTT7=
EXTT8=
EXTT9=
EXTT10=
EXTT11=
EXTT12=
EXTT13=
PLAYORDER=
